<svg width="600" height="1080" viewBox="0 0 600 1080" fill="none" xmlns="http://www.w3.org/2000/svg">
<path d="M0 0H600V1080H0V0Z" fill="black"/>
<path d="M129 1080H138L195.5 592L129 1080Z" fill="#535A5E"/>
<path d="M140.5 1080H153L221.5 599L140.5 1080Z" fill="#5F686D"/>
<path d="M156 1080H170.5L250.5 589L156 1080Z" fill="#D3D7DA"/>
<path d="M172 1080H185L271.5 599.5L172 1080Z" fill="#D2D6D9"/>
<path d="M187 1080H198L280 661L187 1080Z" fill="#E9EBEA"/>
<path d="M203.5 1079.5H217L282 747L203.5 1079.5Z" stroke="black"/>
<path d="M220.5 1079.5H244.5L341 549.5L220.5 1079.5Z" fill="#E4E5E7"/>
<path d="M247.5 1079.5H278L361.5 567.5L247.5 1079.5Z" fill="#D3D7DA"/>
<path d="M279 1079.5H316L395.5 544L279 1079.5Z" fill="#C9CDD0"/>
<path d="M322 1079.5H365.5L427 548L322 1079.5Z" fill="#616A6F"/>
<path d="M370 1080H425L463.5 556.5L370 1080Z" fill="#545C5E"/>
<path d="M502.5 4H494L437 487.5L502.5 4Z" fill="#545C5F"/>
<path d="M491 3.5H478.5L409.5 487.5L491 3.5Z" fill="#646E71"/>
<path d="M475.5 3.5H461.5L380 495L475.5 3.5Z" fill="#D4D5D9"/>
<path d="M460 3.5H446.5L359 490L460 3.5Z" fill="#D4D8DB"/>
<path d="M444 3.5H433L351 426.5L444 3.5Z" fill="#E9EAEC"/>
<path d="M431 3H414.5L200.5 1080H217.5L431 3Z" fill="#EB543F"/>
<path d="M428 3H414L348 341L428 3Z" fill="#F1F1F3"/>
<path d="M308 0H266L205 532L308 0Z" fill="#586166"/>
<path d="M352 2.5H315.5L235.5 541L352 2.5Z" fill="#C9CDCF"/>
<path d="M383 2.5H354L270 517.5L383 2.5Z" fill="#D2D6D9"/>
<path d="M410.5 3H387L290 535.5L410.5 3Z" fill="#E2E6E7"/>
<path d="M261 0H206L167 525L261 0Z" fill="#586166"/>
<path d="M261 0H206L167 525L261 0Z" fill="#586166"/>
<path d="M204 1080H217.5L282.5 747L204 1080Z" fill="#EEEFF1"/>
</svg>
