<svg width="1920" height="1080" viewBox="0 0 1920 1080" fill="none" xmlns="http://www.w3.org/2000/svg">
<rect width="1920" height="1080" fill="black"/>
<path d="M776 1080H785L842.5 592L776 1080Z" fill="#535A5E"/>
<path d="M787.5 1080H800L868.5 599L787.5 1080Z" fill="#5F686D"/>
<path d="M803 1080H817.5L897.5 589L803 1080Z" fill="#D3D7DA"/>
<path d="M819 1080H832L918.5 599.5L819 1080Z" fill="#D2D6D9"/>
<path d="M834 1080H845L927 661L834 1080Z" fill="#E9EBEA"/>
<path d="M850.5 1079.5H864L929 747L850.5 1079.5Z" stroke="black"/>
<path d="M867.5 1079.5H891.5L988 549.5L867.5 1079.5Z" fill="#E4E5E7"/>
<path d="M894.5 1079.5H925L1008.5 567.5L894.5 1079.5Z" fill="#D3D7DA"/>
<path d="M926 1079.5H963L1042.5 544L926 1079.5Z" fill="#C9CDD0"/>
<path d="M969 1079.5H1012.5L1074 548L969 1079.5Z" fill="#616A6F"/>
<path d="M1017 1080H1072L1110.5 556.5L1017 1080Z" fill="#545C5E"/>
<path d="M1149.5 4H1141L1084 487.5L1149.5 4Z" fill="#545C5F"/>
<path d="M1138 3.5H1125.5L1056.5 487.5L1138 3.5Z" fill="#646E71"/>
<path d="M1122.5 3.5H1108.5L1027 495L1122.5 3.5Z" fill="#D4D5D9"/>
<path d="M1107 3.5H1093.5L1006 490L1107 3.5Z" fill="#D4D8DB"/>
<path d="M1091 3.5H1080L998 426.5L1091 3.5Z" fill="#E9EAEC"/>
<path d="M1078 3H1061.5L847.5 1080H864.5L1078 3Z" fill="#EB543F"/>
<path d="M1075 3H1061L995 341L1075 3Z" fill="#F1F1F3"/>
<path d="M955 0H913L852 532L955 0Z" fill="#586166"/>
<path d="M999 2.5H962.5L882.5 541L999 2.5Z" fill="#C9CDCF"/>
<path d="M1030 2.5H1001L917 517.5L1030 2.5Z" fill="#D2D6D9"/>
<path d="M1057.5 3H1034L937 535.5L1057.5 3Z" fill="#E2E6E7"/>
<path d="M908 0H853L814 525L908 0Z" fill="#586166"/>
<path d="M908 0H853L814 525L908 0Z" fill="#586166"/>
<path d="M851 1080H864.5L929.5 747L851 1080Z" fill="#EEEFF1"/>
</svg>
