<svg width="1920" height="1080" viewBox="0 0 1920 1080" fill="none" xmlns="http://www.w3.org/2000/svg">
<path d="M0 0H1920V1080H0V0Z" fill="black"/>
<path d="M1245 1080H1254L1311.5 592L1245 1080Z" fill="#535A5E"/>
<path d="M1256.5 1080H1269L1337.5 599L1256.5 1080Z" fill="#5F686D"/>
<path d="M1272 1080H1286.5L1366.5 589L1272 1080Z" fill="#D3D7DA"/>
<path d="M1288 1080H1301L1387.5 599.5L1288 1080Z" fill="#D2D6D9"/>
<path d="M1303 1080H1314L1396 661L1303 1080Z" fill="#E9EBEA"/>
<path d="M1319.5 1079.5H1333L1398 747L1319.5 1079.5Z" stroke="black"/>
<path d="M1336.5 1079.5H1360.5L1457 549.5L1336.5 1079.5Z" fill="#E4E5E7"/>
<path d="M1363.5 1079.5H1394L1477.5 567.5L1363.5 1079.5Z" fill="#D3D7DA"/>
<path d="M1395 1079.5H1432L1511.5 544L1395 1079.5Z" fill="#C9CDD0"/>
<path d="M1438 1079.5H1481.5L1543 548L1438 1079.5Z" fill="#616A6F"/>
<path d="M1486 1080H1541L1579.5 556.5L1486 1080Z" fill="#545C5E"/>
<path d="M1618.5 4H1610L1553 487.5L1618.5 4Z" fill="#545C5F"/>
<path d="M1607 3.5H1594.5L1525.5 487.5L1607 3.5Z" fill="#646E71"/>
<path d="M1591.5 3.5H1577.5L1496 495L1591.5 3.5Z" fill="#D4D5D9"/>
<path d="M1576 3.5H1562.5L1475 490L1576 3.5Z" fill="#D4D8DB"/>
<path d="M1560 3.5H1549L1467 426.5L1560 3.5Z" fill="#E9EAEC"/>
<path d="M1547 3H1530.5L1316.5 1080H1333.5L1547 3Z" fill="#EB543F"/>
<path d="M1544 3H1530L1464 341L1544 3Z" fill="#F1F1F3"/>
<path d="M1424 0H1382L1321 532L1424 0Z" fill="#586166"/>
<path d="M1468 2.5H1431.5L1351.5 541L1468 2.5Z" fill="#C9CDCF"/>
<path d="M1499 2.5H1470L1386 517.5L1499 2.5Z" fill="#D2D6D9"/>
<path d="M1526.5 3H1503L1406 535.5L1526.5 3Z" fill="#E2E6E7"/>
<path d="M1377 0H1322L1283 525L1377 0Z" fill="#586166"/>
<path d="M1377 0H1322L1283 525L1377 0Z" fill="#586166"/>
<path d="M1320 1080H1333.5L1398.5 747L1320 1080Z" fill="#EEEFF1"/>
</svg>
